<svg viewBox="0 0 403 836" fill="none" xmlns="http://www.w3.org/2000/svg"><path fill-rule="evenodd" clip-rule="evenodd" d="M60 0h283c32.032 0 58 25.968 58 58v125.171c1.165.412 2 1.523 2 2.829v83a3.001 3.001 0 01-2 2.829V778c0 32.032-25.968 58-58 58H60c-32.032 0-58-25.968-58-58V284.829A3.001 3.001 0 010 282v-48c0-1.306.835-2.417 2-2.829v-18.342A3.001 3.001 0 010 210v-48c0-1.306.835-2.417 2-2.829v-24.342A3.001 3.001 0 010 132v-25c0-1.306.835-2.417 2-2.829V58C2 25.968 27.968 0 60 0zm0 12c-25.405 0-46 20.595-46 46v720c0 25.405 20.595 46 46 46h283c25.405 0 46-20.595 46-46V58c0-25.405-20.595-46-46-46h-30.084A8.86 8.86 0 00307 20.357c0 12.23-9.914 22.143-22.143 22.143H117.143C104.914 42.5 95 32.586 95 20.357A8.86 8.86 0 0089.084 12H60z" fill="currentColor"/></svg>