<svg viewBox="0 0 332 687" fill="none" xmlns="http://www.w3.org/2000/svg"><path fill-rule="evenodd" clip-rule="evenodd" d="M49.361 0h232.821c26.353 0 47.716 21.34 47.716 47.663v102.861a2.467 2.467 0 011.646 2.325v68.207a2.465 2.465 0 01-1.646 2.325v415.956c0 26.324-21.363 47.663-47.716 47.663H49.362c-26.353 0-47.717-21.339-47.717-47.663V234.064A2.465 2.465 0 010 231.739v-39.445c0-1.073.687-1.986 1.645-2.325v-15.072A2.467 2.467 0 010 172.572v-39.445c0-1.074.687-1.987 1.645-2.325v-20.003A2.467 2.467 0 010 108.474V87.929c0-1.073.687-1.986 1.645-2.325V47.663C1.645 21.339 23.01 0 49.361 0zm0 9.861c-20.9 0-37.843 16.925-37.843 37.802v591.674c0 20.877 16.943 37.802 37.843 37.802h232.821c20.901 0 37.844-16.925 37.844-37.802V47.663c0-20.877-16.943-37.802-37.844-37.802h-24.749a7.282 7.282 0 00-4.867 6.868c0 10.05-8.156 18.196-18.217 18.196H96.372c-10.06 0-18.216-8.146-18.216-18.196a7.282 7.282 0 00-4.868-6.868H49.361z" fill="#000"/><path d="M276.45 25.466h.883v.952h-.883V28h-1.187v-1.582h-3.071l-.034-.723 3.066-4.804h1.226v4.575zm-3.047 0h1.86v-2.969l-.088.156-1.772 2.813zm10.356 1.611c-.257.335-.613.59-1.069.762-.456.172-.973.259-1.553.259-.595 0-1.123-.135-1.582-.406a2.713 2.713 0 01-1.064-1.157c-.248-.504-.376-1.092-.386-1.762v-.557c0-1.074.257-1.913.771-2.515.515-.605 1.233-.908 2.154-.908.791 0 1.419.195 1.885.586.465.39.745.954.839 1.69h-1.211c-.136-.857-.633-1.285-1.489-1.285-.553 0-.975.2-1.264.6-.287.398-.435.982-.445 1.754v.547c0 .768.161 1.365.484 1.792.325.423.776.634 1.352.634.632 0 1.081-.143 1.348-.43V25.29h-1.465v-.938h2.695v2.725zM256.101 25.183h2.064V29h-2.064zM259.54 23.275h2.064V29h-2.064zM262.979 21.366h2.064v7.633h-2.064z" fill="#000"/><path opacity=".3" fill="#000" d="M266.419 19.458h2.064V29h-2.064z"/><rect x="288.509" y="19.864" width="15.48" height="8.73" rx="2.03" stroke="#000" stroke-width=".812"/><rect x="289.406" y="20.926" width="7.82" height="6.606" rx=".812" fill="#FDD015"/><rect x="305.046" y="22.394" width="1.303" height="3.67" rx=".652" fill="#000"/><path d="M43.166 26.007c0 1.022-.192 1.793-.576 2.314-.381.518-.962.777-1.743.777-.769 0-1.348-.253-1.739-.757-.387-.508-.585-1.258-.595-2.251v-1.23c0-1.023.19-1.79.571-2.3.384-.511.968-.767 1.753-.767.778 0 1.357.249 1.738.747.384.498.581 1.244.591 2.236v1.23zm-1.186-1.328c0-.668-.092-1.156-.274-1.465-.182-.313-.472-.469-.87-.469-.386 0-.671.148-.854.444-.182.293-.278.752-.288 1.377v1.612c0 .664.093 1.159.279 1.484.185.326.477.488.874.488.38 0 .662-.15.844-.449.183-.303.279-.775.288-1.416V24.68zm6.713-.913c0 .348-.09.659-.268.932a1.87 1.87 0 01-.733.64c.371.172.656.408.855.708.202.3.303.638.303 1.015 0 .625-.212 1.122-.635 1.49-.423.364-.987.547-1.69.547-.706 0-1.272-.184-1.699-.552-.423-.368-.635-.863-.635-1.485 0-.38.101-.722.303-1.025.202-.303.485-.535.85-.698a1.878 1.878 0 01-.728-.64 1.687 1.687 0 01-.264-.932c0-.606.196-1.086.587-1.44.39-.356.917-.533 1.581-.533.668 0 1.197.177 1.587.532.391.355.586.835.586 1.44zm-1.03 3.237c0-.352-.106-.635-.317-.85-.209-.218-.485-.327-.83-.327s-.622.108-.83.322c-.206.215-.308.5-.308.855 0 .348.1.627.303.835.205.208.486.312.844.312s.637-.1.835-.302c.202-.202.303-.484.303-.845zm-.151-3.193c0-.31-.09-.564-.269-.762-.179-.202-.42-.303-.723-.303-.302 0-.542.096-.717.288-.176.189-.264.448-.264.777 0 .325.088.584.264.776.179.192.42.288.722.288.303 0 .542-.096.718-.288.18-.192.269-.45.269-.776zm3.178 3.94c.222 0 .393.064.513.19.12.124.18.28.18.47 0 .185-.06.34-.18.463-.12.12-.291.18-.513.18-.211 0-.379-.06-.502-.18a.619.619 0 01-.186-.464c0-.189.06-.345.18-.469.121-.127.29-.19.508-.19zm0-4.145c.222 0 .393.063.513.19.12.124.18.28.18.469 0 .185-.06.34-.18.463-.12.121-.291.181-.513.181-.211 0-.379-.06-.502-.18a.619.619 0 01-.186-.464c0-.19.06-.345.18-.47.121-.126.29-.19.508-.19zm3.238 1.298h.722c.365-.003.653-.097.865-.283.215-.185.322-.454.322-.806 0-.338-.09-.6-.269-.786-.175-.188-.446-.283-.81-.283-.32 0-.581.093-.786.278a.914.914 0 00-.308.718h-1.187c0-.364.097-.696.289-.996.195-.3.465-.532.81-.698.349-.17.737-.254 1.167-.254.71 0 1.266.179 1.67.537.407.355.61.85.61 1.485 0 .319-.102.62-.307.903-.202.28-.464.491-.786.634.39.134.687.344.888.63.205.287.308.629.308 1.026 0 .638-.22 1.146-.66 1.523-.435.378-1.01.567-1.723.567-.683 0-1.243-.183-1.68-.547-.436-.365-.654-.85-.654-1.455h1.187c0 .312.104.566.312.761.212.196.495.293.85.293.368 0 .657-.097.869-.293.212-.195.317-.478.317-.85 0-.373-.11-.662-.332-.863-.221-.202-.55-.303-.986-.303h-.698v-.938zm8.325 1.563h.884v.952h-.884V29h-1.187v-1.582h-3.07l-.035-.723 3.066-4.804h1.226v4.575zm-3.047 0h1.86v-2.969l-.088.156-1.772 2.813z" fill="#000"/></svg>